<svg width="428" height="281" viewBox="0 0 428 281" fill="none" xmlns="http://www.w3.org/2000/svg">
<g id="pro-wave">
<path id="wave2" d="M347.245 79.6127C365.828 87.0975 378.557 105.207 375.906 125.065C371.742 156.245 360.724 186.945 337.208 208.455C305.327 237.617 262.087 254 217 254C171.913 254 128.673 237.617 96.7919 208.455C66.0613 180.346 48.311 142.583 47.0698 102.958C46.9775 100.011 47.5235 97.0842 48.5462 94.3183V94.3183C59.2429 65.3884 93.388 53.0277 120.125 68.4064L160.36 91.5494C186.35 106.498 218.117 107.364 244.882 93.8527L266.306 83.0379C291.536 70.3017 321.03 69.0536 347.245 79.6127V79.6127Z" fill="#1DEE4B" fill-opacity="0.66"/>
<path id="wave1" d="M371.357 90.5269C375.636 95.3409 378.05 101.56 377.851 107.998C376.685 145.733 368.3 182.154 339 208.955C307.119 238.117 263.879 254.5 218.792 254.5C173.705 254.5 130.465 238.117 98.5837 208.955C80.2407 192.177 60.6328 154.745 47.2876 118.125C35.2044 84.969 66.4324 60.7005 99.3471 73.4275L100.552 73.8936C104.166 75.2909 107.564 77.1917 110.646 79.5397V79.5397C120.941 87.3838 134.329 89.9242 146.782 86.3968L184.099 75.8269C206.046 69.6101 229.628 73.6202 248.287 86.7424L269.594 101.727C285.675 113.036 307.408 111.87 322.187 98.9058L334.359 88.2286C345.227 78.6952 361.753 79.7218 371.357 90.5269V90.5269Z" fill="#1DEE4B" fill-opacity="0.66"/>
</g>
</svg>
