<svg width="968" height="960" viewBox="0 0 968 960" fill="none" xmlns="http://www.w3.org/2000/svg">
<g filter="url(#filter0_f_2_133)">
<circle cx="484.215" cy="476.636" r="252.056" fill="#D5D5D5"/>
</g>
<g filter="url(#filter1_ii_2_133)">
<circle cx="480.357" cy="479.797" r="261.697" fill="#F1F1F1"/>
</g>
<g opacity="0.85">
<g opacity="0.93">
<g filter="url(#filter2_f_2_133)">
<ellipse cx="597.2" cy="320.128" rx="44.0753" ry="24.8539" transform="rotate(34.7828 597.2 320.128)" fill="#DCDCDC"/>
</g>
<g filter="url(#filter3_di_2_133)">
<ellipse cx="601.55" cy="316.194" rx="44.0753" ry="24.8539" transform="rotate(34.7828 601.55 316.194)" fill="#F4F4F4"/>
</g>
</g>
<g opacity="0.93">
<g filter="url(#filter4_f_2_133)">
<ellipse cx="605.141" cy="387.443" rx="26.9221" ry="15.1813" transform="rotate(34.7828 605.141 387.443)" fill="#DCDCDC"/>
</g>
<g filter="url(#filter5_di_2_133)">
<ellipse cx="607.798" cy="385.04" rx="26.9221" ry="15.1813" transform="rotate(34.7828 607.798 385.04)" fill="#F4F4F4"/>
</g>
</g>
<g opacity="0.93">
<g filter="url(#filter6_f_2_133)">
<ellipse cx="552.87" cy="351.892" rx="17.3415" ry="9.77882" transform="rotate(34.7828 552.87 351.892)" fill="#DCDCDC"/>
</g>
<g filter="url(#filter7_di_2_133)">
<ellipse cx="554.581" cy="350.345" rx="17.3415" ry="9.77882" transform="rotate(34.7828 554.581 350.345)" fill="#F4F4F4"/>
</g>
</g>
</g>
<g filter="url(#filter8_df_2_133)">
<path d="M172.474 275.542L177.526 292.818L194.802 297.87L177.526 302.923L172.474 320.199L167.421 302.923L150.145 297.87L167.421 292.818L172.474 275.542Z" fill="#FFEDAD"/>
</g>
<g filter="url(#filter9_df_2_133)">
<path d="M206.826 243.48L209.546 252.783L218.849 255.503L209.546 258.224L206.826 267.526L204.105 258.224L194.802 255.503L204.105 252.783L206.826 243.48Z" fill="#FFEDAD"/>
</g>
<g filter="url(#filter10_df_2_133)">
<path d="M161.023 243.48L163.744 252.783L173.046 255.503L163.744 258.224L161.023 267.526L158.303 258.224L149 255.503L158.303 252.783L161.023 243.48Z" fill="#FFEDAD"/>
</g>
<path d="M874.982 510.821L873.971 510.586L873.108 509.396L871.46 503.079L855.377 496.366L852.004 492.234C850.828 491.534 850.089 491.965 849.866 492.268C848.434 495.282 845.272 495.23 843.87 494.827L835.284 492.827L833.653 497.543L828.137 493.14L819.402 490.801L815.264 491.587L812.085 492.824L811.434 499.214L811.97 500.175L812.105 499.598L867.804 512.572C873.451 514.192 874.942 512.08 874.982 510.821Z" fill="black"/>
<path d="M853.388 490.883C851.599 490.466 850.956 491.635 850.859 492.271L855.048 493.552L855.233 492.758C855.364 492.307 855.177 491.3 853.388 490.883Z" fill="black"/>
<path d="M825.154 490.924C825.968 490.566 834.385 488.739 838.492 487.87L839.334 488.826L838.221 490.012L834.759 491.488L832.441 492.621L825.154 490.924Z" fill="#92C6F7" fill-opacity="0.24"/>
<path d="M838.757 488.692L831.864 492.487L831.441 492.997L833.75 493.535L835.647 491.923L837.77 490.972L840.181 490.089C840.978 489.544 840.309 488.344 839.875 487.811L838.492 487.87L838.757 488.692Z" fill="black"/>
<path d="M804.699 496.124L805.321 493.454L807.052 493.858L807.63 496.274L807.444 498.056C803.145 497.177 802.717 496.144 803.04 495.737L804.699 496.124Z" fill="black"/>
<path d="M833.846 492.796L822.085 490.057C816.912 489.278 812.238 489.665 810.547 489.956C804.665 490.654 803.531 492.429 803.7 493.229L805.359 493.615L807.044 497.811L811.561 499.319C811.9 496.229 814.181 490.422 820.588 491.914C826.995 493.406 826.138 499.546 824.909 502.428L855.889 509.188C857.556 502.031 862.313 501.202 864.483 501.682C871.352 503.282 871.037 509.142 870.021 511.871L873.308 511.8L875.741 508.868L876.636 505.35L876.1 504.388C876.076 502.922 875.661 501.7 875.456 501.272L876.101 501.117L876.185 500.757L869.186 499.127C864.666 496.066 855.537 493.285 851.537 492.277C850.161 496.095 845.004 495.725 842.598 495.063L835.527 493.416C835.594 493.128 835.786 492.741 835.873 492.584C836.41 492.892 837.132 493.055 837.427 493.098C837.551 493 837.826 492.689 837.934 492.227C838.041 491.766 837.943 491.317 837.88 491.15C836.984 490.819 835.7 491.149 835.17 491.355L833.846 492.796Z" fill="url(#paint0_linear_2_133)"/>
<path d="M873.023 501.922L875.456 501.272C876.317 502.02 876.232 503.709 876.083 504.46L874.402 503.84L873.023 501.922Z" fill="black"/>
<circle cx="863.325" cy="508.943" r="5.85238" transform="rotate(13.112 863.325 508.943)" fill="black"/>
<circle cx="863.325" cy="508.943" r="4.21231" transform="rotate(13.112 863.325 508.943)" fill="#171717" stroke="#555555" stroke-width="0.296323"/>
<mask id="mask0_2_133" style="mask-type:alpha" maskUnits="userSpaceOnUse" x="859" y="504" width="9" height="10">
<circle cx="863.325" cy="508.943" r="4.06415" transform="rotate(13.112 863.325 508.943)" fill="#828282"/>
</mask>
<g mask="url(#mask0_2_133)">
<rect x="859.163" y="507.661" width="8.61974" height="0.538734" transform="rotate(13.112 859.163 507.661)" fill="#585858"/>
<rect x="862.059" y="513.037" width="8.61974" height="0.538734" transform="rotate(-76.888 862.059 513.037)" fill="#585858"/>
<rect x="859.097" y="509.895" width="8.61974" height="0.538734" transform="rotate(-16.888 859.097 509.895)" fill="#585858"/>
<rect x="864.293" y="513.103" width="8.61974" height="0.538734" transform="rotate(-106.888 864.293 513.103)" fill="#585858"/>
<rect x="860.157" y="511.863" width="8.61974" height="0.538734" transform="rotate(-46.888 860.157 511.863)" fill="#585858"/>
<rect x="866.261" y="512.043" width="8.61974" height="0.538734" transform="rotate(-136.888 866.261 512.043)" fill="#585858"/>
</g>
<circle cx="818.881" cy="498.59" r="5.85238" transform="rotate(13.112 818.881 498.59)" fill="black"/>
<circle cx="818.881" cy="498.59" r="4.21231" transform="rotate(13.112 818.881 498.59)" fill="#414141" stroke="#BABABA" stroke-width="0.296323"/>
<mask id="mask1_2_133" style="mask-type:alpha" maskUnits="userSpaceOnUse" x="814" y="494" width="9" height="9">
<circle cx="818.881" cy="498.59" r="4.06415" transform="rotate(13.112 818.881 498.59)" fill="#828282"/>
</mask>
<g mask="url(#mask1_2_133)">
<rect x="814.719" y="497.308" width="8.61974" height="0.538734" transform="rotate(13.112 814.719 497.308)" fill="#C4C4C4"/>
<rect x="817.615" y="502.685" width="8.61974" height="0.538734" transform="rotate(-76.888 817.615 502.685)" fill="#C4C4C4"/>
<rect x="814.652" y="499.543" width="8.61974" height="0.538734" transform="rotate(-16.888 814.652 499.543)" fill="#C4C4C4"/>
<rect x="819.849" y="502.751" width="8.61974" height="0.538734" transform="rotate(-106.888 819.849 502.751)" fill="#C4C4C4"/>
<rect x="815.713" y="501.511" width="8.61974" height="0.538734" transform="rotate(-46.888 815.713 501.511)" fill="#C4C4C4"/>
<rect x="821.818" y="501.69" width="8.61974" height="0.538734" transform="rotate(-136.888 821.818 501.69)" fill="#C4C4C4"/>
</g>
<path d="M825.408 499.959L857.428 506.504" stroke="black" stroke-width="0.148161"/>
<path d="M831.177 492.175C830.418 493.798 829.101 497.822 829.898 500.928L847.548 504.507L852.821 497.216C852.674 496.65 852.681 494.947 853.88 492.671" stroke="black" stroke-width="0.148161"/>
<path d="M873.677 502.379L868.366 503.956" stroke="black" stroke-width="0.148161"/>
<circle cx="846.957" cy="492.351" r="2.2965" transform="rotate(13.112 846.957 492.351)" fill="url(#paint1_linear_2_133)"/>
<mask id="mask2_2_133" style="mask-type:alpha" maskUnits="userSpaceOnUse" x="844" y="490" width="6" height="5">
<circle cx="846.956" cy="492.351" r="2.2965" transform="rotate(13.112 846.956 492.351)" fill="#C4C4C4"/>
</mask>
<g mask="url(#mask2_2_133)">
<path d="M847.257 492.041L844.515 491.402L844.196 492.773C846.793 493.378 847.319 492.537 847.257 492.041Z" fill="#1F1F1F"/>
</g>
<defs>
<filter id="filter0_f_2_133" x="0.764664" y="-6.81514" width="966.902" height="966.902" filterUnits="userSpaceOnUse" color-interpolation-filters="sRGB">
<feFlood flood-opacity="0" result="BackgroundImageFix"/>
<feBlend mode="normal" in="SourceGraphic" in2="BackgroundImageFix" result="shape"/>
<feGaussianBlur stdDeviation="115.698" result="effect1_foregroundBlur_2_133"/>
</filter>
<filter id="filter1_ii_2_133" x="218.66" y="164.383" width="583.394" height="577.111" filterUnits="userSpaceOnUse" color-interpolation-filters="sRGB">
<feFlood flood-opacity="0" result="BackgroundImageFix"/>
<feBlend mode="normal" in="SourceGraphic" in2="BackgroundImageFix" result="shape"/>
<feColorMatrix in="SourceAlpha" type="matrix" values="0 0 0 0 0 0 0 0 0 0 0 0 0 0 0 0 0 0 127 0" result="hardAlpha"/>
<feMorphology radius="9" operator="dilate" in="SourceAlpha" result="effect1_innerShadow_2_133"/>
<feOffset dx="77.1317" dy="-53.7168"/>
<feGaussianBlur stdDeviation="34.5"/>
<feComposite in2="hardAlpha" operator="arithmetic" k2="-1" k3="1"/>
<feColorMatrix type="matrix" values="0 0 0 0 0 0 0 0 0 0 0 0 0 0 0 0 0 0 0.28 0"/>
<feBlend mode="normal" in2="shape" result="effect1_innerShadow_2_133"/>
<feColorMatrix in="SourceAlpha" type="matrix" values="0 0 0 0 0 0 0 0 0 0 0 0 0 0 0 0 0 0 127 0" result="hardAlpha"/>
<feOffset dx="4.13206" dy="-8.26412"/>
<feGaussianBlur stdDeviation="7.57544"/>
<feComposite in2="hardAlpha" operator="arithmetic" k2="-1" k3="1"/>
<feColorMatrix type="matrix" values="0 0 0 0 1 0 0 0 0 1 0 0 0 0 1 0 0 0 0.41 0"/>
<feBlend mode="normal" in2="effect1_innerShadow_2_133" result="effect2_innerShadow_2_133"/>
</filter>
<filter id="filter2_f_2_133" x="550.048" y="279.476" width="94.3041" height="81.3034" filterUnits="userSpaceOnUse" color-interpolation-filters="sRGB">
<feFlood flood-opacity="0" result="BackgroundImageFix"/>
<feBlend mode="normal" in="SourceGraphic" in2="BackgroundImageFix" result="shape"/>
<feGaussianBlur stdDeviation="4.13206" result="effect1_foregroundBlur_2_133"/>
</filter>
<filter id="filter3_di_2_133" x="558.53" y="283.807" width="81.9079" height="73.0393" filterUnits="userSpaceOnUse" color-interpolation-filters="sRGB">
<feFlood flood-opacity="0" result="BackgroundImageFix"/>
<feColorMatrix in="SourceAlpha" type="matrix" values="0 0 0 0 0 0 0 0 0 0 0 0 0 0 0 0 0 0 127 0" result="hardAlpha"/>
<feOffset dx="-1.37735" dy="1.37735"/>
<feGaussianBlur stdDeviation="0.688676"/>
<feComposite in2="hardAlpha" operator="out"/>
<feColorMatrix type="matrix" values="0 0 0 0 1 0 0 0 0 1 0 0 0 0 1 0 0 0 0.69 0"/>
<feBlend mode="normal" in2="BackgroundImageFix" result="effect1_dropShadow_2_133"/>
<feBlend mode="normal" in="SourceGraphic" in2="effect1_dropShadow_2_133" result="shape"/>
<feColorMatrix in="SourceAlpha" type="matrix" values="0 0 0 0 0 0 0 0 0 0 0 0 0 0 0 0 0 0 127 0" result="hardAlpha"/>
<feOffset dx="-4.13206" dy="8.26412"/>
<feGaussianBlur stdDeviation="12.3962"/>
<feComposite in2="hardAlpha" operator="arithmetic" k2="-1" k3="1"/>
<feColorMatrix type="matrix" values="0 0 0 0 0 0 0 0 0 0 0 0 0 0 0 0 0 0 0.15 0"/>
<feBlend mode="normal" in2="shape" result="effect2_innerShadow_2_133"/>
</filter>
<filter id="filter4_f_2_133" x="573.123" y="359.395" width="64.0354" height="56.0943" filterUnits="userSpaceOnUse" color-interpolation-filters="sRGB">
<feFlood flood-opacity="0" result="BackgroundImageFix"/>
<feBlend mode="normal" in="SourceGraphic" in2="BackgroundImageFix" result="shape"/>
<feGaussianBlur stdDeviation="4.13206" result="effect1_foregroundBlur_2_133"/>
</filter>
<filter id="filter5_di_2_133" x="579.913" y="365.257" width="51.6392" height="47.8302" filterUnits="userSpaceOnUse" color-interpolation-filters="sRGB">
<feFlood flood-opacity="0" result="BackgroundImageFix"/>
<feColorMatrix in="SourceAlpha" type="matrix" values="0 0 0 0 0 0 0 0 0 0 0 0 0 0 0 0 0 0 127 0" result="hardAlpha"/>
<feOffset dx="-1.37735" dy="1.37735"/>
<feGaussianBlur stdDeviation="0.688676"/>
<feComposite in2="hardAlpha" operator="out"/>
<feColorMatrix type="matrix" values="0 0 0 0 1 0 0 0 0 1 0 0 0 0 1 0 0 0 0.69 0"/>
<feBlend mode="normal" in2="BackgroundImageFix" result="effect1_dropShadow_2_133"/>
<feBlend mode="normal" in="SourceGraphic" in2="effect1_dropShadow_2_133" result="shape"/>
<feColorMatrix in="SourceAlpha" type="matrix" values="0 0 0 0 0 0 0 0 0 0 0 0 0 0 0 0 0 0 127 0" result="hardAlpha"/>
<feOffset dx="-4.13206" dy="8.26412"/>
<feGaussianBlur stdDeviation="12.3962"/>
<feComposite in2="hardAlpha" operator="arithmetic" k2="-1" k3="1"/>
<feColorMatrix type="matrix" values="0 0 0 0 0 0 0 0 0 0 0 0 0 0 0 0 0 0 0.15 0"/>
<feBlend mode="normal" in2="shape" result="effect2_innerShadow_2_133"/>
</filter>
<filter id="filter6_f_2_133" x="532.246" y="333.826" width="41.2475" height="36.1323" filterUnits="userSpaceOnUse" color-interpolation-filters="sRGB">
<feFlood flood-opacity="0" result="BackgroundImageFix"/>
<feBlend mode="normal" in="SourceGraphic" in2="BackgroundImageFix" result="shape"/>
<feGaussianBlur stdDeviation="2.66161" result="effect1_foregroundBlur_2_133"/>
</filter>
<filter id="filter7_di_2_133" x="536.619" y="337.602" width="33.2626" height="30.8091" filterUnits="userSpaceOnUse" color-interpolation-filters="sRGB">
<feFlood flood-opacity="0" result="BackgroundImageFix"/>
<feColorMatrix in="SourceAlpha" type="matrix" values="0 0 0 0 0 0 0 0 0 0 0 0 0 0 0 0 0 0 127 0" result="hardAlpha"/>
<feOffset dx="-0.887202" dy="0.887202"/>
<feGaussianBlur stdDeviation="0.443601"/>
<feComposite in2="hardAlpha" operator="out"/>
<feColorMatrix type="matrix" values="0 0 0 0 1 0 0 0 0 1 0 0 0 0 1 0 0 0 0.69 0"/>
<feBlend mode="normal" in2="BackgroundImageFix" result="effect1_dropShadow_2_133"/>
<feBlend mode="normal" in="SourceGraphic" in2="effect1_dropShadow_2_133" result="shape"/>
<feColorMatrix in="SourceAlpha" type="matrix" values="0 0 0 0 0 0 0 0 0 0 0 0 0 0 0 0 0 0 127 0" result="hardAlpha"/>
<feOffset dx="-2.66161" dy="5.32321"/>
<feGaussianBlur stdDeviation="7.98482"/>
<feComposite in2="hardAlpha" operator="arithmetic" k2="-1" k3="1"/>
<feColorMatrix type="matrix" values="0 0 0 0 0 0 0 0 0 0 0 0 0 0 0 0 0 0 0.15 0"/>
<feBlend mode="normal" in2="shape" result="effect2_innerShadow_2_133"/>
</filter>
<filter id="filter8_df_2_133" x="132.969" y="262.946" width="79.0091" height="79.0091" filterUnits="userSpaceOnUse" color-interpolation-filters="sRGB">
<feFlood flood-opacity="0" result="BackgroundImageFix"/>
<feColorMatrix in="SourceAlpha" type="matrix" values="0 0 0 0 0 0 0 0 0 0 0 0 0 0 0 0 0 0 127 0" result="hardAlpha"/>
<feOffset dy="4.58024"/>
<feGaussianBlur stdDeviation="8.58795"/>
<feComposite in2="hardAlpha" operator="out"/>
<feColorMatrix type="matrix" values="0 0 0 0 1 0 0 0 0 1 0 0 0 0 1 0 0 0 1 0"/>
<feBlend mode="normal" in2="BackgroundImageFix" result="effect1_dropShadow_2_133"/>
<feBlend mode="normal" in="SourceGraphic" in2="effect1_dropShadow_2_133" result="shape"/>
<feGaussianBlur stdDeviation="3.43518" result="effect2_foregroundBlur_2_133"/>
</filter>
<filter id="filter9_df_2_133" x="185.554" y="236.698" width="42.5434" height="42.5434" filterUnits="userSpaceOnUse" color-interpolation-filters="sRGB">
<feFlood flood-opacity="0" result="BackgroundImageFix"/>
<feColorMatrix in="SourceAlpha" type="matrix" values="0 0 0 0 0 0 0 0 0 0 0 0 0 0 0 0 0 0 127 0" result="hardAlpha"/>
<feOffset dy="2.46628"/>
<feGaussianBlur stdDeviation="4.62428"/>
<feComposite in2="hardAlpha" operator="out"/>
<feColorMatrix type="matrix" values="0 0 0 0 1 0 0 0 0 1 0 0 0 0 1 0 0 0 1 0"/>
<feBlend mode="normal" in2="BackgroundImageFix" result="effect1_dropShadow_2_133"/>
<feBlend mode="normal" in="SourceGraphic" in2="effect1_dropShadow_2_133" result="shape"/>
<feGaussianBlur stdDeviation="1.84971" result="effect2_foregroundBlur_2_133"/>
</filter>
<filter id="filter10_df_2_133" x="139.751" y="236.698" width="42.5434" height="42.5434" filterUnits="userSpaceOnUse" color-interpolation-filters="sRGB">
<feFlood flood-opacity="0" result="BackgroundImageFix"/>
<feColorMatrix in="SourceAlpha" type="matrix" values="0 0 0 0 0 0 0 0 0 0 0 0 0 0 0 0 0 0 127 0" result="hardAlpha"/>
<feOffset dy="2.46628"/>
<feGaussianBlur stdDeviation="4.62428"/>
<feComposite in2="hardAlpha" operator="out"/>
<feColorMatrix type="matrix" values="0 0 0 0 1 0 0 0 0 1 0 0 0 0 1 0 0 0 1 0"/>
<feBlend mode="normal" in2="BackgroundImageFix" result="effect1_dropShadow_2_133"/>
<feBlend mode="normal" in="SourceGraphic" in2="effect1_dropShadow_2_133" result="shape"/>
<feGaussianBlur stdDeviation="1.84971" result="effect2_foregroundBlur_2_133"/>
</filter>
<linearGradient id="paint0_linear_2_133" x1="809.927" y1="494.088" x2="863.63" y2="504.317" gradientUnits="userSpaceOnUse">
<stop stop-color="#B60202"/>
<stop offset="1" stop-color="#4B0202"/>
</linearGradient>
<linearGradient id="paint1_linear_2_133" x1="844.108" y1="493.048" x2="850.749" y2="491.501" gradientUnits="userSpaceOnUse">
<stop stop-color="white"/>
<stop offset="1" stop-color="white" stop-opacity="0"/>
</linearGradient>
</defs>
</svg>
